# xmcd CD database file
#
# Track frame offsets:
#	150
#	20912
#	42505
#	69474
#	92396
#	109990
#	133029
#	154499
#	177982
#	200932
#	215610
#	234147
#	254867
#	275268
#	296596
#	323496
#
# Disc length: 4594 seconds
#
# Revision: 0
# Processed by: cddbd v1.5.1PL0 Copyright (c) Steve Scherf et al.
# Submitted via: CDex 1.51
#
DISCID=f911f010
DTITLE=Jose Alberto "El Canario" - Serie 32
DYEAR=2002
DGENRE=Salsa
TTITLE0=Disculpeme Senora
TTITLE1=Con Sandra En La Cama
TTITLE2=Llego El Sabor
TTITLE3=La Paella
TTITLE4=Come Fue
TTITLE5=Quien Como Tu
TTITLE6=Baila Que Baila
TTITLE7=La Gitana
TTITLE8=Bailemos Otra Vez
TTITLE9=And I love Her
TTITLE10=La Critica
TTITLE11=Eso Parte El Alma
TTITLE12=Envuelvete Conmigo
TTITLE13=Tributo Al Bravo
TTITLE14=Celia
TTITLE15=Te Repetiste
EXTD=YEAR: 2002
EXTT0=
EXTT1=
EXTT2=
EXTT3=
EXTT4=
EXTT5=
EXTT6=
EXTT7=
EXTT8=
EXTT9=
EXTT10=
EXTT11=
EXTT12=
EXTT13=
EXTT14=
EXTT15=
PLAYORDER=
